<?xml version="1.0" encoding="UTF-8"?>
<!-- Concept A: Confluence  twin sculpted streams; negative space forms hidden V -->
<svg xmlns="http://www.w3.org/2000/svg" viewBox="0 0 512 512" role="img" aria-label="Concept A Confluence">
  <rect width="512" height="512" fill="#08080E"/>
  <radialGradient id="a-glow" cx="256" cy="300" r="200" gradientUnits="userSpaceOnUse">
    <stop stop-color="#7C8FD4" stop-opacity="0.12"/>
    <stop offset="1" stop-color="#7C8FD4" stop-opacity="0"/>
  </radialGradient>
  <rect width="512" height="512" fill="url(#a-glow)"/>
  <path fill="#E4E4EA" d="M 96 92 C 48 176, 58 312, 234 412 C 252 396, 242 332, 236 288 C 222 208, 176 148, 132 108 C 116 96, 104 90, 96 92 Z"/>
  <path fill="#E4E4EA" d="M 416 92 C 464 176, 454 312, 278 412 C 260 396, 270 332, 276 288 C 290 208, 336 148, 380 108 C 396 96, 408 90, 416 92 Z"/>
  <path fill="#7C8FD4" opacity="0.28" d="M 148 128 C 132 188, 148 268, 214 352 C 206 340, 188 280, 184 220 C 180 172, 164 136, 148 128 Z"/>
  <path fill="#7C8FD4" opacity="0.28" d="M 364 128 C 380 188, 364 268, 298 352 C 306 340, 324 280, 328 220 C 332 172, 348 136, 364 128 Z"/>
  <circle cx="256" cy="404" r="24" fill="#E4E4EA"/>
  <circle cx="256" cy="404" r="13" fill="#7C8FD4"/>
</svg>
