<?xml version="1.0" encoding="UTF-8"?>
<!-- Concept B: Meridian  single folded ribbon; V revealed in the fold void -->
<svg xmlns="http://www.w3.org/2000/svg" viewBox="0 0 512 512" role="img" aria-label="Concept B Meridian">
  <rect width="512" height="512" fill="#08080E"/>
  <path fill="#E4E4EA" d="
    M 256 88
    C 196 88, 108 148, 88 248
    C 78 308, 108 372, 168 408
    C 196 424, 220 418, 236 396
    C 248 378, 248 352, 236 332
    C 220 304, 188 296, 164 312
    C 136 332, 128 364, 144 388
    C 168 420, 212 428, 256 428
    C 300 428, 344 420, 368 388
    C 384 364, 376 332, 348 312
    C 324 296, 292 304, 276 332
    C 264 352, 264 378, 276 396
    C 292 418, 316 424, 344 408
    C 404 372, 434 308, 424 248
    C 404 148, 316 88, 256 88
    Z
  "/>
  <path fill="#08080E" d="M 256 148 C 220 148, 168 196, 156 252 C 148 288, 164 324, 196 344 C 216 356, 236 352, 248 336 C 256 324, 256 308, 248 296 C 236 280, 212 276, 192 288 C 172 300, 164 320, 172 340 C 184 368, 216 380, 256 380 C 296 380, 328 368, 340 340 C 348 320, 340 300, 320 288 C 300 276, 276 280, 264 296 C 256 308, 256 324, 264 336 C 276 352, 296 356, 316 344 C 348 324, 364 288, 356 252 C 344 196, 292 148, 256 148 Z"/>
  <circle cx="256" cy="404" r="18" fill="#7C8FD4"/>
</svg>
