<?xml version="1.0" encoding="UTF-8"?>
<svg xmlns="http://www.w3.org/2000/svg" viewBox="0 0 512 512" role="img" aria-label="Virtus Core mark">
  <rect width="512" height="512" rx="118" fill="#08080E"/>
  <path
    fill="#E8E8EE"
    d="M 104 104 C 68 192, 76 308, 234 396 C 252 384, 244 332, 238 292 C 228 224, 188 168, 146 132 C 132 122, 116 108, 104 104 Z"
  />
  <path
    fill="#E8E8EE"
    d="M 408 104 C 444 192, 436 308, 278 396 C 260 384, 268 332, 274 292 C 284 224, 324 168, 366 132 C 380 122, 396 108, 408 104 Z"
  />
  <circle cx="256" cy="396" r="30" fill="#E8E8EE"/>
  <circle cx="256" cy="396" r="17" fill="#7C8FD4"/>
</svg>
